<svg width="294" height="294" viewBox="0 0 294 294" fill="none" xmlns="http://www.w3.org/2000/svg">
<path d="M199.673 83.5636C198.89 78.4686 194.578 73.206 190.547 70.6585C190.127 70.3792 189.708 70.1264 189.287 69.875C180.162 76.196 163.476 86.4198 143.879 89.5274C142.368 89.7788 140.52 89.4142 139.372 90.4506C135.762 93.6699 135.034 104.924 126.104 105.176C124.871 108.313 123.752 111.335 122.548 113.91C124.008 111.866 134.676 113.804 137.385 114.415C140.042 115.003 151.507 118.126 151.019 120.574C153.034 116.233 152.251 111.839 150.935 107.247C166.92 104.169 189.064 92.8584 199.673 83.5636Z" fill="#4A306D"/>
<path d="M59.8687 130.792C57.0255 133.525 53.4358 135.353 49.5535 136.046C45.6711 136.738 41.6706 136.264 38.0577 134.683C34.4449 133.102 31.382 130.485 29.2564 127.164C27.1308 123.842 26.0379 119.964 26.1161 116.022C26.1942 112.079 27.4398 108.248 29.6953 105.013C31.9508 101.778 35.115 99.2843 38.7876 97.8477C42.4603 96.411 46.4764 96.0958 50.3283 96.9417C54.1801 97.7876 57.6946 99.7568 60.4273 102.6C62.2434 104.487 63.6697 106.713 64.6246 109.152C65.5796 111.591 66.0444 114.193 65.9925 116.812C65.9406 119.43 65.373 122.013 64.3223 124.411C63.2715 126.81 61.7581 128.978 59.8687 130.792Z" fill="#4A306D"/>
<path d="M274.139 209.149C276.154 202.178 282.874 204.305 286.569 200.105C287.241 206.517 283.713 212.956 277.33 213.263L274.139 209.149Z" fill="#4A306D"/>
<path d="M122.211 222.949C119.664 224.434 114.906 221.354 109.699 215.474C109.79 217.503 110.365 219.481 111.378 221.242C114.906 227.849 114.738 244.142 118.657 242.998C119.749 242.662 121.037 237.118 122.185 230.765C122.779 227.695 123.565 224.666 124.537 221.694C124.05 221.942 122.699 222.624 122.211 222.949Z" fill="#A167A5"/>
<path d="M138.505 82.5567C139.019 84.0512 139.776 85.4508 140.745 86.6991C143.207 86.336 145.945 85.5893 146.455 84.4603C146.543 84.2692 146.619 84.0737 146.68 83.8723C146.036 85.9156 142.312 84.5441 138.505 82.5567Z" fill="#A167A5"/>
<path d="M141.808 67.523C136.853 62.3163 120.7 66.4029 109.755 74.3262C98.7532 82.2759 101.917 89.7229 116.165 86.3081C115.326 86.5595 106.199 89.3025 100.236 96.1571C91.4737 106.235 99.0883 110.099 108.909 108.083C120.639 105.675 130.717 96.0454 134.132 89.3819C135.7 85.4559 136.764 81.3468 137.298 77.153C133.211 73.8219 135.703 70.7981 137.942 73.0943C139.146 74.3261 140.489 73.7381 139.006 69.7133C140.501 68.7857 142.296 68.4888 141.808 67.523Z" fill="#A167A5"/>
<path d="M179.181 230.284C178.664 223.637 178.739 216.957 179.405 210.323C174.093 211.823 168.459 211.736 163.196 210.072C163.308 214.72 161.853 217.071 163.057 219.955C163.78 221.571 164.806 223.034 166.079 224.265C171.343 229.585 175.85 245.261 179.293 243.022C180.246 242.403 179.881 236.723 179.181 230.284Z" fill="#A167A5"/>
<path d="M126.523 113.015C126.272 114.315 125.876 115.582 125.347 116.794C120.784 114.526 121.848 113.043 126.523 113.015Z" fill="#A167A5"/>
<path d="M151.047 120.54C150.934 121.072 150.178 121.409 148.918 121.569C149.395 120.702 149.815 119.917 150.178 119.133C150.822 119.677 151.129 120.153 151.047 120.54Z" fill="#A167A5"/>
<path d="M163.587 163.489L160.647 171.915C160.536 168.64 160.424 165.421 160.367 162.257L163.587 163.489Z" fill="#A167A5"/>
<path d="M63.0498 222.977C55.5322 210.109 45.5568 199.148 40.844 200.964C34.4656 203.422 43.1195 223.131 48.0822 231.74C56.4245 246.185 66.5028 255.983 70.707 253.722C76.8178 250.317 66.835 229.455 63.0498 222.977Z" fill="#A167A5"/>
<path d="M114.738 192.66C106.452 178.326 96.4011 168.64 92.2572 171.051C88.0868 173.457 91.4458 187.008 99.7042 201.34C107.963 215.673 118.041 225.332 122.183 222.949C126.355 220.543 122.996 206.992 114.738 192.66Z" fill="#A167A5"/>
<path d="M124.535 221.689C123.566 224.662 122.78 227.691 122.183 230.761C121.049 237.117 119.751 242.668 118.655 242.994C114.744 244.17 114.891 227.853 111.376 221.238C110.362 219.478 109.786 217.499 109.697 215.47" stroke="#A167A5" stroke-linecap="round" stroke-linejoin="round"/>
<path d="M221.425 116.346C220.866 115.442 220.116 114.672 219.227 114.09C218.338 113.508 217.331 113.129 216.28 112.979C215.228 112.83 214.156 112.913 213.139 113.224C212.123 113.535 211.188 114.065 210.4 114.778C210.087 113.714 209.534 112.738 208.783 111.923C208.032 111.108 207.103 110.477 206.069 110.078C204.58 109.503 202.941 109.439 201.412 109.896C199.882 110.353 198.547 111.305 197.617 112.602C197.054 113.38 196.651 114.262 196.43 115.197C195.561 114.542 194.556 114.092 193.489 113.88C192.422 113.669 191.32 113.7 190.267 113.974C189.214 114.247 188.237 114.755 187.407 115.459C186.578 116.163 185.918 117.045 185.477 118.04C184.888 119.37 184.715 120.848 184.98 122.279C184.036 122.032 183.051 121.976 182.085 122.116C181.118 122.255 180.189 122.587 179.353 123.092C178.41 123.671 177.612 124.459 177.021 125.396C176.43 126.332 176.063 127.392 175.946 128.493C175.83 129.594 175.968 130.707 176.35 131.746C176.732 132.785 177.348 133.722 178.149 134.486C176.669 135.068 175.422 136.123 174.602 137.485C173.782 138.848 173.433 140.443 173.611 142.024C173.728 143.072 174.073 144.082 174.621 144.983C175.388 146.25 176.532 147.244 177.893 147.827C179.253 148.409 180.763 148.55 182.208 148.23L221.288 124.269C222.271 123.677 223.466 119.643 221.425 116.346Z" stroke="#A167A5" stroke-linecap="round" stroke-linejoin="round"/>
<path d="M191.779 127.459C192.468 128.109 192.978 128.926 193.26 129.83C193.542 130.734 193.587 131.695 193.39 132.622C193.194 133.548 192.762 134.409 192.137 135.12C191.512 135.832 190.715 136.371 189.821 136.685C188.624 137.105 187.318 137.1 186.124 136.67" stroke="#A167A5" stroke-linecap="round" stroke-linejoin="round"/>
<path d="M209.191 122.533C209.035 123.665 208.534 124.721 207.755 125.558C206.976 126.394 205.958 126.969 204.84 127.205C203.722 127.44 202.559 127.325 201.509 126.875C200.458 126.425 199.573 125.661 198.973 124.688C198.719 124.268 198.522 123.816 198.385 123.345" stroke="#A167A5" stroke-linecap="round" stroke-linejoin="round"/>
<path d="M210.395 114.778C209.643 115.488 209.018 116.321 208.547 117.243" stroke="#A167A5" stroke-linecap="round" stroke-linejoin="round"/>
<path d="M180.698 134.014C179.83 134.058 178.971 134.217 178.145 134.487" stroke="#A167A5" stroke-linecap="round" stroke-linejoin="round"/>
<path d="M196.426 115.198C196.243 116.11 196.212 117.047 196.336 117.969" stroke="#A167A5" stroke-linecap="round" stroke-linejoin="round"/>
<path d="M187.75 123.579C186.91 122.984 185.971 122.544 184.976 122.28" stroke="#A167A5" stroke-linecap="round" stroke-linejoin="round"/>
<path d="M231.391 132.526C229.314 129.106 225.028 128.496 224.281 129.056L185.172 153.048C184.053 153.719 182.517 157.784 184.641 161.221C185.194 162.119 185.936 162.885 186.816 163.466C187.697 164.047 188.693 164.428 189.736 164.584C190.779 164.739 191.844 164.663 192.855 164.361C193.866 164.059 194.798 163.539 195.586 162.838C196.035 164.38 196.987 165.728 198.29 166.667C199.592 167.606 201.172 168.083 202.777 168.022C204.382 167.961 205.92 167.365 207.148 166.33C208.375 165.294 209.221 163.877 209.551 162.306C210.707 163.19 212.104 163.705 213.557 163.783C215.011 163.861 216.454 163.498 217.698 162.741C218.942 161.985 219.928 160.87 220.527 159.544C221.127 158.217 221.311 156.74 221.057 155.307C222.608 155.699 224.246 155.565 225.712 154.926C227.179 154.287 228.393 153.18 229.163 151.778C229.932 150.374 230.212 148.755 229.961 147.174C229.71 145.594 228.941 144.142 227.775 143.046C228.768 142.669 229.665 142.078 230.404 141.316C231.143 140.554 231.705 139.638 232.051 138.634C232.396 137.63 232.515 136.562 232.401 135.507C232.287 134.451 231.942 133.434 231.391 132.526Z" stroke="#A167A5" stroke-linecap="round" stroke-linejoin="round"/>
<path d="M208.015 153.943C207.8 153.214 207.437 152.538 206.949 151.956C206.461 151.374 205.858 150.899 205.179 150.56C204.499 150.221 203.757 150.025 202.998 149.985C202.24 149.945 201.481 150.062 200.77 150.328C199.819 150.685 198.984 151.296 198.357 152.095C197.745 152.885 197.349 153.82 197.209 154.81" stroke="#A167A5" stroke-linecap="round" stroke-linejoin="round"/>
<path d="M220.306 140.679C219.109 140.267 217.806 140.277 216.615 140.708C215.424 141.138 214.416 141.963 213.759 143.046C213.102 144.128 212.835 145.403 213.002 146.658C213.169 147.913 213.761 149.073 214.679 149.946" stroke="#A167A5" stroke-linecap="round" stroke-linejoin="round"/>
<path d="M227.779 143.053C226.793 143.418 225.751 143.607 224.7 143.613" stroke="#A167A5" stroke-linecap="round" stroke-linejoin="round"/>
<path d="M197.136 160.818C196.717 161.565 196.195 162.248 195.586 162.851" stroke="#A167A5" stroke-linecap="round" stroke-linejoin="round"/>
<path d="M221.062 155.314C220.161 155.056 219.308 154.651 218.538 154.118" stroke="#A167A5" stroke-linecap="round" stroke-linejoin="round"/>
<path d="M209.635 159.314C209.768 160.312 209.742 161.324 209.556 162.313" stroke="#A167A5" stroke-linecap="round" stroke-linejoin="round"/>
<path d="M185.172 153.048L181.001 155.566" stroke="#A167A5" stroke-linecap="round" stroke-linejoin="round"/>
<path d="M182.205 148.232L178.089 150.724" stroke="#A167A5" stroke-linecap="round" stroke-linejoin="round"/>
<path d="M160.509 168.024L116.054 195.01" stroke="#A167A5" stroke-linecap="round" stroke-linejoin="round"/>
<path d="M159.613 161.948L113.225 190.14" stroke="#A167A5" stroke-linecap="round" stroke-linejoin="round"/>
<path d="M199.085 84.0678C209.041 83.1466 219.052 85.1216 227.912 89.7553C236.772 94.389 244.105 101.484 249.028 110.187C263.899 135.743 256.109 168.749 231.643 183.897C216.338 193.373 212.092 188.363 182.373 196.833" stroke="#A167A5" stroke-linecap="round" stroke-linejoin="round"/>
<path d="M122.504 222.731C136.098 215.642 148.248 209.444 160.761 204.333" stroke="#A167A5" stroke-linecap="round" stroke-linejoin="round"/>
<path d="M124.059 147.196C114.626 154.754 104.295 162.117 92.2293 171.02" stroke="#A167A5" stroke-linecap="round" stroke-linejoin="round"/>
<path d="M164.596 103.244C158.729 112.064 152.146 120.389 144.916 128.131" stroke="#A167A5" stroke-linecap="round" stroke-linejoin="round"/>
<path d="M189.26 69.9029C193.99 72.5621 198.806 78.0217 199.673 83.5636C189.063 92.8584 166.92 104.169 150.935 107.247C152.251 111.839 153.034 116.234 151.019 120.574C151.507 118.129 140.21 115.045 137.385 114.415C134.627 113.799 123.996 111.885 122.548 113.91C123.752 111.335 124.872 108.311 126.104 105.176C135.034 104.924 135.747 93.6537 139.372 90.4506C140.514 89.4422 142.312 89.7803 143.879 89.5274C163.464 86.3419 180.162 76.2019 189.287 69.875L189.26 69.9029Z" stroke="#A167A5" stroke-linecap="round" stroke-linejoin="round"/>
<path d="M124.15 118.894C132.165 118.766 140.058 120.863 146.953 124.95" stroke="#A167A5" stroke-linecap="round" stroke-linejoin="round"/>
<path d="M146.55 84.1707C145.637 85.7672 142.109 84.4383 138.505 82.5537C139.019 84.0485 139.775 85.4481 140.745 86.6962" stroke="#A167A5" stroke-linecap="round" stroke-linejoin="round"/>
<path d="M142.841 89.6318C140.891 89.1526 141.413 88.203 140.745 86.6991C146.008 85.9215 146.919 84.9528 146.703 82.3156C146.387 78.4848 144.138 70.1381 141.808 67.523" stroke="#A167A5" stroke-linecap="round" stroke-linejoin="round"/>
<path d="M150.935 107.247C149.311 107.555 147.744 107.779 146.287 107.92" stroke="#A167A5" stroke-linecap="round" stroke-linejoin="round"/>
<path d="M139.009 69.7074C140.492 73.7381 139.156 74.3261 137.945 73.0884C135.705 70.7937 133.214 73.8234 137.301 77.1471C136.768 81.3423 135.705 85.4529 134.138 89.3804C130.723 96.0439 120.644 105.674 108.915 108.082C99.0883 110.097 91.4737 106.234 100.242 96.1556C106.205 89.2966 115.332 86.5536 116.171 86.3066C101.922 89.7215 98.762 82.2788 109.761 74.3247C120.709 66.4058 136.858 62.3148 141.814 67.5215C142.287 68.48 140.448 68.8181 139.009 69.7074Z" stroke="#A167A5" stroke-linecap="round" stroke-linejoin="round"/>
<path d="M126.104 105.176C127.582 101.175 129.488 97.3458 131.787 93.7537C132.696 92.3938 133.474 90.9506 134.11 89.4436" stroke="#A167A5" stroke-linecap="round" stroke-linejoin="round"/>
<path d="M144.958 128.087C146.899 125.228 148.648 122.243 150.193 119.152" stroke="#A167A5" stroke-linecap="round" stroke-linejoin="round"/>
<path d="M205.776 68.5314C210.003 67.523 213.482 69.4281 213.194 71.051C213.129 71.3765 212.996 71.6846 212.803 71.9547C212.61 72.2249 212.362 72.4509 212.075 72.618" stroke="#A167A5" stroke-linecap="round" stroke-linejoin="round"/>
<path d="M205.384 65.956C209.835 64.8917 214.258 67.132 212.355 69.484" stroke="#A167A5" stroke-linecap="round" stroke-linejoin="round"/>
<path d="M199.197 81.5483C201.831 78.5416 205.211 76.2823 208.996 74.9979" stroke="#A167A5" stroke-linecap="round" stroke-linejoin="round"/>
<path d="M205.607 71.5537C209.723 70.7144 212.434 72.3372 212.271 73.9337C212.07 75.8932 208.155 78.8611 204.852 76.9574" stroke="#A167A5" stroke-linecap="round" stroke-linejoin="round"/>
<path d="M202.137 64.4713C202.193 64.4154 203.901 62.0369 203.145 61.2799C202.501 60.636 193.207 68.2786 190.603 70.7144" stroke="#A167A5" stroke-linecap="round" stroke-linejoin="round"/>
<path d="M207.483 65.6752C214.874 62.1207 216.859 57.8328 215.462 58.6192C210.802 60.9521 206.017 63.0269 201.128 64.8344C197.345 66.2738 193.79 68.2544 190.575 70.7144" stroke="#A167A5" stroke-linecap="round" stroke-linejoin="round"/>
<path d="M179.405 210.323C178.745 216.957 178.67 223.637 179.181 230.284C179.894 236.721 180.244 242.404 179.293 243.022C175.847 245.258 171.333 229.595 166.079 224.265C164.804 223.036 163.777 221.572 163.057 219.955C161.85 217.066 163.313 214.711 163.195 210.048" stroke="#A167A5" stroke-linecap="round" stroke-linejoin="round"/>
<path d="M114.738 192.66C123.007 206.986 126.358 220.547 122.183 222.942C118.044 225.326 107.963 215.664 99.7042 201.333C91.4458 187.002 88.0897 173.46 92.2572 171.048C96.4246 168.635 106.462 178.32 114.738 192.66Z" stroke="#A167A5" stroke-linecap="round" stroke-linejoin="round"/>
<path d="M72.2476 245.831C70.1543 232.802 57.5711 211.126 47.3546 203.298C42.0773 199.21 38.2979 199.933 38.7301 206.789C39.5504 219.799 54.0372 244.898 64.8505 252.262C70.854 256.349 73.4353 253.227 72.2476 245.831Z" stroke="#A167A5" stroke-linecap="round" stroke-linejoin="round"/>
<path d="M70.9848 253.575L79.2962 248.767C80.0964 248.139 80.6403 247.241 80.8259 246.241C81.0115 245.241 80.8262 244.208 80.3046 243.335C83.6121 248.317 90.1022 243.173 87.4988 238.856C89.914 242.972 97.508 240.314 94.3858 234.07C95.0927 234.987 96.1013 235.625 97.2332 235.871C98.3652 236.117 99.5476 235.955 100.572 235.413C103.953 233.255 102.699 229.058 100.601 222.227C96.6771 210.495 90.4527 199.663 82.2921 190.365C80.3309 188.029 78.0855 185.947 75.608 184.167C71.6904 181.738 67.2834 183.559 68.7989 190.17C67.5524 188.092 66.0897 186.734 63.6187 187.397C62.995 187.571 62.42 187.887 61.9386 188.32C61.4571 188.753 61.0823 189.291 60.8433 189.893C60.6045 190.495 60.5085 191.144 60.5628 191.789C60.6172 192.435 60.8203 193.059 61.1564 193.612C61.1564 193.612 58.2561 189.946 54.9692 192.549C54.1535 193.186 53.6039 194.103 53.4278 195.122C53.2517 196.142 53.4616 197.19 54.0166 198.063C53.6187 197.36 53.0195 196.791 52.2961 196.431C51.5726 196.07 50.7579 195.934 49.9565 196.039C49.4243 196.109 48.9111 196.283 48.4468 196.552L40.6235 201.053" stroke="#A167A5" stroke-linecap="round" stroke-linejoin="round"/>
<path d="M274.139 209.149C270.686 211.056 267.375 213.207 264.23 215.587C254.989 222.724 245.977 231.684 247.178 233.252C248.379 234.821 259.302 228.385 268.565 221.242C271.669 218.802 274.589 216.135 277.299 213.263" stroke="#A167A5" stroke-linecap="round" stroke-linejoin="round"/>
<path d="M274.139 209.149C276.154 202.178 282.874 204.305 286.569 200.105C287.241 206.517 283.713 212.956 277.33 213.263L274.139 209.149Z" stroke="#A167A5" stroke-linecap="round" stroke-linejoin="round"/>
<path d="M265.391 214.71L269.716 220.318" stroke="#A167A5" stroke-linecap="round" stroke-linejoin="round"/>
<path d="M280.719 75.0538L277.051 83.2696H283.769L280.073 91.4869" stroke="#A167A5" stroke-linecap="round" stroke-linejoin="round"/>
<path d="M150.178 277.987L135.286 278.434" stroke="#A167A5" stroke-linecap="round" stroke-linejoin="round"/>
<path d="M142.956 285.658L142.508 270.764" stroke="#A167A5" stroke-linecap="round" stroke-linejoin="round"/>
<path d="M126.523 113.015C126.272 114.315 125.876 115.582 125.347 116.794C120.784 114.526 121.848 113.043 126.523 113.015Z" stroke="#A167A5" stroke-linecap="round" stroke-linejoin="round"/>
<path d="M151.019 120.574C150.884 121.081 150.165 121.412 148.949 121.576" stroke="#A167A5" stroke-linecap="round" stroke-linejoin="round"/>
<path d="M126.523 113.015C126.064 116.195 124.45 119.095 121.988 121.16C110.986 129.895 110.816 142.128 118.852 151.284" stroke="#A167A5" stroke-linecap="round" stroke-linejoin="round"/>
<path d="M40.1339 201.359L27.7301 208.392" stroke="#A167A5" stroke-linecap="round" stroke-linejoin="round"/>
<path d="M70.4159 253.882L59.2807 260.378" stroke="#A167A5" stroke-linecap="round" stroke-linejoin="round"/>
<path d="M53.9049 263.765L45.6464 268.581" stroke="#A167A5" stroke-linecap="round" stroke-linejoin="round"/>
<path d="M21.9633 212.003L13.5372 216.791" stroke="#A167A5" stroke-linecap="round" stroke-linejoin="round"/>
<path d="M48.1102 231.74L20.9828 247.78" stroke="#A167A5" stroke-linecap="round" stroke-linejoin="round"/>
<path d="M15.5805 251.169L7.35001 255.955" stroke="#A167A5" stroke-linecap="round" stroke-linejoin="round"/>
<path d="M59.8687 130.792C57.0255 133.525 53.4358 135.353 49.5535 136.046C45.6711 136.738 41.6706 136.264 38.0577 134.683C34.4449 133.102 31.382 130.485 29.2564 127.164C27.1308 123.842 26.0379 119.964 26.1161 116.022C26.1942 112.079 27.4398 108.248 29.6953 105.013C31.9508 101.778 35.115 99.2843 38.7876 97.8477C42.4603 96.411 46.4764 96.0958 50.3283 96.9417C54.1801 97.7876 57.6946 99.7568 60.4273 102.6C62.2434 104.487 63.6697 106.713 64.6246 109.152C65.5796 111.591 66.0444 114.193 65.9925 116.812C65.9406 119.43 65.373 122.013 64.3223 124.411C63.2715 126.81 61.7581 128.978 59.8687 130.792Z" stroke="#A167A5" stroke-linecap="round" stroke-linejoin="round"/>
<path d="M65.9706 117.6C72.1579 120.54 75.8197 123.333 75.2934 125.097C74.3511 128.282 60.4273 127.057 44.1632 122.353C27.8991 117.649 15.4644 111.25 16.392 108.06C16.9212 106.238 21.6266 105.847 28.593 106.716" stroke="#A167A5" stroke-linecap="round" stroke-linejoin="round"/>
<path d="M119.952 138.405C120.763 143.5 123.627 148.172 127.483 149.38C139.524 153.146 160.376 162.285 160.376 162.285C160.636 176.703 161.941 192.567 160.545 209.149C167.221 211.959 174.716 212.129 181.513 209.623C182.689 193.975 183.443 178.97 183.163 165.112C183.1 161.664 182.301 158.269 180.819 155.155C179.337 152.041 177.206 149.279 174.57 147.056C163.69 138.061 151.56 130.697 138.561 125.193" stroke="#A167A5" stroke-linecap="round" stroke-linejoin="round"/>
<path d="M160.368 162.285L163.587 163.489L160.649 171.915" stroke="#A167A5" stroke-linecap="round" stroke-linejoin="round"/>
<path d="M161.125 198.09C167.931 200.425 175.259 200.785 182.261 199.126" stroke="#A167A5" stroke-linecap="round" stroke-linejoin="round"/>
<path d="M154.966 8.34225V13.0183" stroke="#A167A5" stroke-linecap="round" stroke-linejoin="round"/>
<path d="M164.064 17.4401H159.388" stroke="#A167A5" stroke-linecap="round" stroke-linejoin="round"/>
<path d="M154.966 26.5394V21.8633" stroke="#A167A5" stroke-linecap="round" stroke-linejoin="round"/>
<path d="M145.868 17.4401H150.546" stroke="#A167A5" stroke-linecap="round" stroke-linejoin="round"/>
<path d="M159.388 17.4401C158.807 17.4418 158.231 17.3287 157.693 17.1071C157.156 16.8855 156.668 16.5598 156.257 16.1489C155.846 15.7379 155.521 15.2498 155.299 14.7125C155.077 14.1753 154.964 13.5995 154.966 13.0183C154.969 13.8933 154.711 14.7493 154.225 15.4772C153.74 16.205 153.048 16.7717 152.239 17.1049C151.702 17.3271 151.127 17.441 150.546 17.4401C151.127 17.4387 151.702 17.5522 152.239 17.7741C152.777 17.9959 153.265 18.3217 153.675 18.7328C154.086 19.1438 154.412 19.632 154.633 20.1692C154.855 20.7065 154.968 21.2822 154.966 21.8633C154.964 21.2821 155.077 20.7062 155.299 20.1689C155.521 19.6316 155.846 19.1433 156.257 18.7322C156.668 18.3212 157.156 17.9954 157.693 17.7737C158.231 17.5519 158.806 17.4385 159.388 17.4401Z" stroke="#A167A5" stroke-linecap="round" stroke-linejoin="round"/>
</svg>
